<svg width="60" height="60" viewBox="0 0 60 60" fill="none" xmlns="http://www.w3.org/2000/svg">
<path opacity="0.2" fill-rule="evenodd" clip-rule="evenodd" d="M30 60C46.5685 60 60 46.5685 60 30C60 13.4315 46.5685 0 30 0C13.4315 0 0 13.4315 0 30C0 46.5685 13.4315 60 30 60ZM35.5714 31.825H32V45H26.2857V31.825H22V25.625H26.2857V21.285C26.2857 16.5683 29.04 14 32.9186 14C34.7757 14 36.5343 14.1504 37 14.217V19.425H34.8571C32 19.425 32 20.9285 32 22.525V25.625H37L35.5714 31.825Z" fill="white"/>
</svg>
