<svg width="85" height="104" viewBox="0 0 85 104" fill="none" xmlns="http://www.w3.org/2000/svg">
<g opacity="0.4">
<path fill-rule="evenodd" clip-rule="evenodd" d="M66.6269 48.555C71.5961 46.02 74.7346 41.6 74.0154 34.19C73.0346 24.05 64.2731 20.67 53.1577 19.695V6.5H44.5923V19.5H37.7269V6.5H29.1615V19.5C27.2654 19.5 25.5 19.565 23.6692 19.565H13.0769V28.86C13.0769 28.86 18.1115 28.73 17.9808 28.86C21.4461 28.86 22.6231 30.875 22.95 32.63V48.62V70.98C22.8192 72.085 22.1654 73.84 19.7461 73.84C19.8769 73.905 14.8423 73.84 14.8423 73.84L13.1423 84.435H29.0961V97.435H37.6615V84.435H44.5269V97.435H53.0923V84.11C67.5423 83.265 77.6115 79.69 78.9192 66.17C79.9654 55.315 74.8 50.44 66.6269 48.49V48.555ZM37.8577 29.445H39.6231C45.6384 29.315 57.9307 28.99 57.9307 38.025C57.9307 46.865 45.1154 46.67 39.2308 46.54H37.7923V29.51L37.8577 29.445ZM61.9192 64.48C61.9192 74.23 46.5538 73.97 39.4923 73.905H37.7923V55.12H39.8846C47.0769 54.925 61.8538 54.6 61.8538 64.545L61.9192 64.48Z" fill="white"/>
</g>
</svg>
