<svg width="60" height="60" viewBox="0 0 60 60" fill="none" xmlns="http://www.w3.org/2000/svg">
<path opacity="0.2" fill-rule="evenodd" clip-rule="evenodd" d="M30 60C46.5685 60 60 46.5685 60 30C60 13.4315 46.5685 0 30 0C13.4315 0 0 13.4315 0 30C0 46.5685 13.4315 60 30 60ZM23.8164 15.0906C25.4163 15.0178 25.9277 15 30.0014 15H29.9967C34.0718 15 34.5812 15.0178 36.1812 15.0906C37.7781 15.1636 38.8688 15.4165 39.825 15.7876C40.8125 16.1703 41.6469 16.6828 42.4812 17.5171C43.3157 18.351 43.8281 19.1878 44.2125 20.1745C44.5812 21.1282 44.8344 22.2181 44.9094 23.815C44.9813 25.415 45 25.9262 45 30C45 34.0738 44.9813 34.5838 44.9094 36.1837C44.8344 37.78 44.5812 38.8703 44.2125 39.8245C43.8281 40.8107 43.3157 41.6475 42.4812 42.4812C41.6478 43.3157 40.8121 43.8294 39.8259 44.2125C38.8715 44.5835 37.7802 44.8362 36.1833 44.9094C34.5834 44.9822 34.0737 45 29.9996 45C25.926 45 25.4151 44.9822 23.8151 44.9094C22.2185 44.8362 21.1283 44.5835 20.1738 44.2125C19.1879 43.8294 18.351 43.3157 17.5175 42.4812C16.6835 41.6475 16.1709 40.8107 15.7875 39.824C15.4169 38.8703 15.1641 37.7803 15.0906 36.1834C15.018 34.5835 15 34.0738 15 30C15 25.9262 15.0188 25.4147 15.0903 23.8147C15.1621 22.2185 15.4152 21.128 15.7872 20.174C16.1715 19.1878 16.684 18.351 17.5185 17.5171C18.3522 16.6831 19.1891 16.1706 20.1758 15.7875C21.1294 15.4165 22.2195 15.1638 23.8164 15.0906ZM29.5015 17.703C29.1982 17.7029 28.917 17.7027 28.6557 17.7031V17.6994C25.8602 17.7025 25.3239 17.7213 23.9401 17.7838C22.4776 17.851 21.6835 18.0948 21.1548 18.301C20.4548 18.5734 19.9548 18.8985 19.4298 19.4235C18.9046 19.9485 18.5791 20.4484 18.3072 21.1484C18.1019 21.6772 17.8575 22.471 17.7906 23.9335C17.7188 25.5147 17.7043 25.9872 17.7043 29.9928C17.7043 33.9985 17.7188 34.4734 17.7906 36.0547C17.8572 37.5172 18.1019 38.311 18.3072 38.8391C18.5798 39.5395 18.9046 40.0382 19.4296 40.5632C19.9547 41.0882 20.4548 41.4131 21.1546 41.685C21.6838 41.8904 22.4776 42.1347 23.9401 42.2022C25.5213 42.2741 25.9961 42.2897 30.0014 42.2897C34.0065 42.2897 34.4814 42.2741 36.0627 42.2022C37.5252 42.1353 38.3196 41.8916 38.8478 41.6853C39.5481 41.4134 40.0466 41.0885 40.5716 40.5635C41.0965 40.0388 41.4222 39.5404 41.694 38.8403C41.8994 38.3122 42.1437 37.5184 42.2106 36.0559C42.2825 34.4748 42.298 33.9997 42.298 29.9965C42.298 25.9934 42.2825 25.5185 42.2106 23.9372C42.144 22.4747 41.8994 21.6809 41.694 21.1529C41.4215 20.4529 41.0965 19.953 40.5716 19.428C40.0469 18.9028 39.5478 18.5778 38.8478 18.306C38.319 18.1006 37.5252 17.8563 36.0627 17.7894C34.4811 17.7175 34.0065 17.7031 30.0014 17.7031C29.8283 17.7031 29.6618 17.7031 29.5015 17.703ZM36.2084 21.9931C36.2084 20.9992 37.0146 20.1937 38.0084 20.1937V20.1931C39.0021 20.1931 39.8084 20.9993 39.8084 21.9931C39.8084 22.9868 39.0021 23.7931 38.0084 23.7931C37.0146 23.7931 36.2084 22.9868 36.2084 21.9931ZM22.2983 30C22.2983 25.746 25.7472 22.297 30.0011 22.2968C34.2552 22.2968 37.7034 25.746 37.7034 30C37.7034 34.2541 34.2555 37.7015 30.0014 37.7015C25.7474 37.7015 22.2983 34.2541 22.2983 30ZM35.0014 30C35.0014 27.2384 32.7627 25 30.0014 25C27.2399 25 25.0014 27.2384 25.0014 30C25.0014 32.7613 27.2399 35 30.0014 35C32.7627 35 35.0014 32.7613 35.0014 30Z" fill="white"/>
</svg>
