<svg width="124" height="60" viewBox="0 0 124 60" fill="none" xmlns="http://www.w3.org/2000/svg">
<path d="M75.6716 28C73.4757 28 71.6481 27.3043 70.1889 25.913C68.7296 24.5072 68 22.7029 68 20.5C68 18.2826 68.7225 16.4783 70.1676 15.087C71.6268 13.6957 73.4615 13 75.6716 13C78.5192 13 80.5806 14.2971 81.8557 16.8913L78.7105 18.413C78.4697 17.8188 78.0659 17.3188 77.4992 16.913C76.9467 16.5072 76.3375 16.3043 75.6716 16.3043C74.5241 16.3043 73.5748 16.7101 72.824 17.5217C72.0873 18.3188 71.7189 19.3116 71.7189 20.5C71.7189 21.6884 72.0873 22.6884 72.824 23.5C73.5748 24.2971 74.5241 24.6957 75.6716 24.6957C76.3375 24.6957 76.9467 24.4928 77.4992 24.087C78.0659 23.6812 78.4697 23.1812 78.7105 22.587L81.8557 24.1087C81.3173 25.2101 80.5381 26.1377 79.518 26.8913C78.5122 27.6304 77.23 28 75.6716 28Z" fill="white"/>
<path d="M96.357 25.8913C94.9261 27.2971 93.1197 28 90.938 28C88.7562 28 86.9428 27.2971 85.4977 25.8913C84.0668 24.4855 83.3514 22.6884 83.3514 20.5C83.3514 18.3116 84.0668 16.5145 85.4977 15.1087C86.9428 13.7029 88.7562 13 90.938 13C93.1197 13 94.9261 13.7029 96.357 15.1087C97.7879 16.5145 98.5033 18.3116 98.5033 20.5C98.5033 22.6884 97.7879 24.4855 96.357 25.8913ZM90.938 24.6957C92.0855 24.6957 93.0135 24.2971 93.7218 23.5C94.4302 22.7029 94.7844 21.7029 94.7844 20.5C94.7844 19.2971 94.4302 18.2971 93.7218 17.5C93.0135 16.7029 92.0855 16.3043 90.938 16.3043C89.7762 16.3043 88.8412 16.7029 88.1328 17.5C87.4245 18.2971 87.0703 19.2971 87.0703 20.5C87.0703 21.7029 87.4245 22.7029 88.1328 23.5C88.8412 24.2971 89.7762 24.6957 90.938 24.6957Z" fill="white"/>
<path d="M104.637 27.7391H100.982V13.2391H104.637V27.7391Z" fill="white"/>
<path d="M121 27.7391H117.472L111.48 19.3478V27.7391H107.824V13.2391H111.586L117.324 21.2174V13.2391H121V27.7391Z" fill="white"/>
<path d="M72.6454 48.7391H69V34.2391H76.0789C77.6048 34.2391 78.8059 34.7029 79.6819 35.6304C80.5579 36.5435 80.9959 37.6884 80.9959 39.0652C80.9959 40.4275 80.5579 41.5725 79.6819 42.5C78.8059 43.413 77.6048 43.8696 76.0789 43.8696H72.6454V48.7391ZM75.5914 40.6087C76.0859 40.6087 76.4886 40.471 76.7995 40.1957C77.1245 39.9203 77.2869 39.5435 77.2869 39.0652C77.2869 38.5725 77.1245 38.1884 76.7995 37.913C76.4886 37.6377 76.0859 37.5 75.5914 37.5H72.6454V40.6087H75.5914Z" fill="white"/>
<path d="M95.505 46.8913C94.078 48.2971 92.2764 49 90.1005 49C87.9246 49 86.116 48.2971 84.6748 46.8913C83.2477 45.4855 82.5342 43.6884 82.5342 41.5C82.5342 39.3116 83.2477 37.5145 84.6748 36.1087C86.116 34.7029 87.9246 34 90.1005 34C92.2764 34 94.078 34.7029 95.505 36.1087C96.9321 37.5145 97.6456 39.3116 97.6456 41.5C97.6456 43.6884 96.9321 45.4855 95.505 46.8913ZM90.1005 45.6957C91.245 45.6957 92.1705 45.2971 92.8769 44.5C93.5834 43.7029 93.9367 42.7029 93.9367 41.5C93.9367 40.2971 93.5834 39.2971 92.8769 38.5C92.1705 37.7029 91.245 37.3043 90.1005 37.3043C88.9419 37.3043 88.0093 37.7029 87.3029 38.5C86.5964 39.2971 86.2432 40.2971 86.2432 41.5C86.2432 42.7029 86.5964 43.7029 87.3029 44.5C88.0093 45.2971 88.9419 45.6957 90.1005 45.6957Z" fill="white"/>
<path d="M105.374 49C102.76 49 100.668 48.2319 99.1001 46.6957L101.029 43.8913C102.272 45.1667 103.777 45.8043 105.543 45.8043C106.165 45.8043 106.652 45.6957 107.006 45.4783C107.373 45.2464 107.557 44.9565 107.557 44.6087C107.557 44.3043 107.359 44.058 106.963 43.8696C106.568 43.6667 106.073 43.5217 105.48 43.4348C104.886 43.3333 104.243 43.1812 103.551 42.9783C102.859 42.7609 102.216 42.5145 101.622 42.2391C101.029 41.9493 100.534 41.4928 100.139 40.8696C99.743 40.2464 99.5452 39.5 99.5452 38.6304C99.5452 37.3551 100.047 36.2681 101.05 35.3696C102.067 34.471 103.445 34.0217 105.183 34.0217C107.486 34.0217 109.4 34.6957 110.926 36.0435L108.934 38.7174C107.747 37.7174 106.37 37.2174 104.801 37.2174C103.784 37.2174 103.275 37.5652 103.275 38.2609C103.275 38.5362 103.473 38.7754 103.869 38.9783C104.264 39.1667 104.759 39.3116 105.352 39.413C105.946 39.5145 106.582 39.6739 107.26 39.8913C107.952 40.0942 108.595 40.3406 109.189 40.6304C109.782 40.9203 110.277 41.3696 110.672 41.9783C111.068 42.587 111.266 43.3116 111.266 44.1522C111.266 45.6304 110.75 46.8116 109.718 47.6957C108.687 48.5652 107.239 49 105.374 49Z" fill="white"/>
<path d="M120.058 48.7391H116.412V37.5H112.449V34.2391H124V37.5H120.058V48.7391Z" fill="white"/>
<circle cx="30" cy="30" r="30" fill="white"/>
<circle cx="30" cy="30" r="30" fill="url(#paint0_linear_161_1637)"/>
<path fill-rule="evenodd" clip-rule="evenodd" d="M49.5118 29.3905L47.1856 12.2685L31.1944 18.815L37.4719 22.4392L31.2929 33.1417L26.4561 30.3491L20.6933 27.022L20.6933 27.022L17.3661 32.7847L17.3662 32.7848L10.296 45.0306L16.0588 48.3577L23.1289 36.1119L33.7283 42.2314L33.7283 42.2313L33.7285 42.2315L43.2347 25.7664L49.5118 29.3905Z" fill="white"/>
<path fill-rule="evenodd" clip-rule="evenodd" d="M49.5118 29.3905L47.1856 12.2685L31.1944 18.815L37.4719 22.4392L31.2929 33.1417L26.4561 30.3491L20.6933 27.022L20.6933 27.022L17.3661 32.7847L17.3662 32.7848L10.296 45.0306L16.0588 48.3577L23.1289 36.1119L33.7283 42.2314L33.7283 42.2313L33.7285 42.2315L43.2347 25.7664L49.5118 29.3905Z" fill="black"/>
<defs>
<linearGradient id="paint0_linear_161_1637" x1="0" y1="30" x2="60" y2="30" gradientUnits="userSpaceOnUse">
<stop stop-color="#CEE9F5"/>
<stop offset="1" stop-color="#CCCCCC"/>
</linearGradient>
</defs>
</svg>
