<svg width="89" height="89" viewBox="0 0 89 89" fill="none" xmlns="http://www.w3.org/2000/svg">
<g opacity="0.4" clip-path="url(#clip0_161_1735)">
<path d="M61.6473 51.6199L71.7266 61.6918L44.4592 88.9591L17.1918 61.6955L27.2674 51.6199L44.4592 68.9008L61.6473 51.6199ZM78.8429 34.4281L89 44.4999L78.9319 54.5718L68.8563 44.4999L78.8429 34.4281ZM44.4592 34.4281L54.531 44.4109L44.4555 54.4865L34.3837 44.4999L44.4592 34.4281ZM10.0718 34.4281L20.0621 44.4999L10.0792 54.4828L0 44.4999L10.0718 34.4281ZM44.4629 0.0444336L71.7192 27.2191L61.6436 37.2872L44.4629 20.0991L27.2711 37.3799L17.1955 27.3081L44.4629 0.0444336Z" fill="white"/>
</g>
<defs>
<clipPath id="clip0_161_1735">
<rect width="89" height="89" fill="white"/>
</clipPath>
</defs>
</svg>
