<svg width="102" height="102" viewBox="0 0 102 102" fill="none" xmlns="http://www.w3.org/2000/svg">
<g opacity="0.4">
<path fill-rule="evenodd" clip-rule="evenodd" d="M52.2386 0.531743C52.8096 0.530866 53.3729 0.664269 53.883 0.921183C54.393 1.1781 54.8355 1.55133 55.1747 2.01074L87.72 46.1913L52.2386 57.965L16.7571 46.1913L49.317 2.01074C49.6548 1.5533 50.0949 1.18129 50.6022 0.924464C51.1095 0.667641 51.6699 0.533146 52.2386 0.531743ZM16.677 55.7502L49.317 100.062C49.6556 100.521 50.0973 100.895 50.6067 101.152C51.1161 101.409 51.6788 101.544 52.2495 101.544C52.8202 101.544 53.3829 101.409 53.8923 101.152C54.4016 100.895 54.8434 100.521 55.182 100.062L87.822 55.7502L53.6884 67.0867C52.7566 67.3962 51.7497 67.3962 50.8178 67.0867L16.677 55.7502Z" fill="white"/>
</g>
</svg>
