<svg width="60" height="60" viewBox="0 0 60 60" fill="none" xmlns="http://www.w3.org/2000/svg">
<path opacity="0.2" fill-rule="evenodd" clip-rule="evenodd" d="M30 60C46.5685 60 60 46.5685 60 30C60 13.4315 46.5685 0 30 0C13.4315 0 0 13.4315 0 30C0 46.5685 13.4315 60 30 60ZM31.1712 22.7851C28.4863 23.9088 23.1166 26.2347 15.062 29.7625C13.7541 30.2855 13.0678 30.7972 13.0074 31.2972C12.9011 32.1418 13.9531 32.4749 15.3826 32.9276C15.5787 32.9897 15.7818 33.054 15.9901 33.1222C17.4016 33.5832 19.3008 34.1227 20.285 34.1439C21.1828 34.1635 22.1799 33.7924 23.2807 33.0311C30.8086 27.9239 34.6892 25.3424 34.9352 25.2868C35.1078 25.2477 35.3453 25.1983 35.505 25.3428C35.669 25.4869 35.6517 25.7603 35.6345 25.8337C35.5327 26.2798 31.4157 30.1286 29.2734 32.1313C28.5999 32.7609 28.1215 33.2081 28.0245 33.3097C27.8076 33.5362 27.5866 33.7505 27.3742 33.9564C26.0642 35.2261 25.0814 36.1787 27.4288 37.7338C28.567 38.4876 29.4754 39.1098 30.3834 39.7316C31.359 40.3998 32.334 41.0676 33.5928 41.8978C33.9165 42.1111 34.2256 42.3326 34.5266 42.5484C35.6707 43.3685 36.6984 44.1051 37.9697 43.9876C38.7078 43.9195 39.4718 43.2216 39.856 41.14C40.7711 36.2203 42.5711 25.5615 42.9855 21.1692C43.0243 20.7847 42.9768 20.292 42.9423 20.0759C42.9034 19.8595 42.8257 19.5514 42.5495 19.3235C42.2171 19.0533 41.7078 18.9965 41.479 19.0002C40.4387 19.019 38.8459 19.5763 31.1712 22.7851Z" fill="white"/>
</svg>
